<svg width="24" height="24" viewBox="0 0 24 24" fill="none" xmlns="http://www.w3.org/2000/svg">
<path d="M0 12C0 18.6274 5.37258 24 12 24C18.6274 24 24 18.6274 24 12C24 5.37258 18.6274 0 12 0C5.37258 0 0 5.37258 0 12Z" fill="#16365E"/>
<path d="M12 6.8999C13.65 6.8999 13.875 6.8999 14.55 6.8999C15.15 6.8999 15.45 7.0499 15.675 7.1249C15.975 7.2749 16.2 7.3499 16.425 7.5749C16.65 7.7999 16.8 8.0249 16.875 8.3249C16.95 8.5499 17.025 8.8499 17.1 9.4499C17.1 10.1249 17.1 10.2749 17.1 11.9999C17.1 13.7249 17.1 13.8749 17.1 14.5499C17.1 15.1499 16.95 15.4499 16.875 15.6749C16.725 15.9749 16.65 16.1999 16.425 16.4249C16.2 16.6499 15.975 16.7999 15.675 16.8749C15.45 16.9499 15.15 17.0249 14.55 17.0999C13.875 17.0999 13.725 17.0999 12 17.0999C10.275 17.0999 10.125 17.0999 9.45002 17.0999C8.85002 17.0999 8.55002 16.9499 8.32502 16.8749C8.02502 16.7249 7.80002 16.6499 7.57502 16.4249C7.35002 16.1999 7.20002 15.9749 7.12502 15.6749C7.05002 15.4499 6.97502 15.1499 6.90002 14.5499C6.90002 13.8749 6.90002 13.7249 6.90002 11.9999C6.90002 10.2749 6.90002 10.1249 6.90002 9.4499C6.90002 8.8499 7.05002 8.5499 7.12502 8.3249C7.27502 8.0249 7.35002 7.7999 7.57502 7.5749C7.80002 7.3499 8.02502 7.1999 8.32502 7.1249C8.55002 7.0499 8.85002 6.9749 9.45002 6.8999C10.125 6.8999 10.35 6.8999 12 6.8999ZM12 5.7749C10.275 5.7749 10.125 5.7749 9.45002 5.7749C8.77502 5.7749 8.32502 5.9249 7.95002 6.0749C7.57502 6.2249 7.20002 6.4499 6.82502 6.8249C6.45002 7.1999 6.30002 7.4999 6.07502 7.9499C5.92502 8.3249 5.85002 8.7749 5.77502 9.4499C5.77502 10.1249 5.77502 10.3499 5.77502 11.9999C5.77502 13.7249 5.77502 13.8749 5.77502 14.5499C5.77502 15.2249 5.92502 15.6749 6.07502 16.0499C6.22502 16.4249 6.45002 16.7999 6.82502 17.1749C7.20002 17.5499 7.50002 17.6999 7.95002 17.9249C8.32502 18.0749 8.77502 18.1499 9.45002 18.2249C10.125 18.2249 10.35 18.2249 12 18.2249C13.65 18.2249 13.875 18.2249 14.55 18.2249C15.225 18.2249 15.675 18.0749 16.05 17.9249C16.425 17.7749 16.8 17.5499 17.175 17.1749C17.55 16.7999 17.7 16.4999 17.925 16.0499C18.075 15.6749 18.15 15.2249 18.225 14.5499C18.225 13.8749 18.225 13.6499 18.225 11.9999C18.225 10.3499 18.225 10.1249 18.225 9.4499C18.225 8.7749 18.075 8.3249 17.925 7.9499C17.775 7.5749 17.55 7.1999 17.175 6.8249C16.8 6.4499 16.5 6.2999 16.05 6.0749C15.675 5.9249 15.225 5.8499 14.55 5.7749C13.875 5.7749 13.725 5.7749 12 5.7749Z" fill="white"/>
<path d="M12 8.7749C10.2 8.7749 8.77502 10.1999 8.77502 11.9999C8.77502 13.7999 10.2 15.2249 12 15.2249C13.8 15.2249 15.225 13.7999 15.225 11.9999C15.225 10.1999 13.8 8.7749 12 8.7749ZM12 14.0999C10.875 14.0999 9.90002 13.1999 9.90002 11.9999C9.90002 10.8749 10.8 9.8999 12 9.8999C13.125 9.8999 14.1 10.7999 14.1 11.9999C14.1 13.1249 13.125 14.0999 12 14.0999Z" fill="white"/>
<path d="M15.3 9.4499C15.7142 9.4499 16.05 9.11412 16.05 8.6999C16.05 8.28569 15.7142 7.9499 15.3 7.9499C14.8858 7.9499 14.55 8.28569 14.55 8.6999C14.55 9.11412 14.8858 9.4499 15.3 9.4499Z" fill="white"/>
</svg>
