<svg width="23" height="23" viewBox="0 0 23 23" fill="none" xmlns="http://www.w3.org/2000/svg">
<path d="M7.87569 11.0202C7.42363 11.0218 6.97957 11.1396 6.58625 11.3624C7.14001 9.92909 8.05845 8.66517 9.25069 7.69578C9.31891 7.6396 9.37539 7.57054 9.41691 7.49254C9.45844 7.41453 9.48419 7.32911 9.4927 7.24115C9.50121 7.15319 9.49232 7.06442 9.46652 6.9799C9.44073 6.89538 9.39854 6.81677 9.34236 6.74856C9.28618 6.68034 9.21712 6.62386 9.13912 6.58234C9.06111 6.54081 8.97569 6.51506 8.88773 6.50655C8.79977 6.49803 8.711 6.50693 8.62648 6.53273C8.54196 6.55852 8.46335 6.60071 8.39514 6.65689C5.95069 8.643 4.86292 11.393 4.86292 13.098C4.86713 13.7009 5.04678 14.2894 5.37994 14.7919C5.7131 15.2943 6.18535 15.6889 6.73903 15.9274C7.09736 16.101 7.48977 16.1929 7.88791 16.1963C8.23836 16.2134 8.58862 16.1591 8.91745 16.0367C9.24628 15.9143 9.54683 15.7264 9.80088 15.4844C10.0549 15.2424 10.2572 14.9513 10.3954 14.6288C10.5336 14.3063 10.6048 13.9591 10.6048 13.6083C10.6048 13.2574 10.5336 12.9102 10.3954 12.5877C10.2572 12.2652 10.0549 11.9741 9.80088 11.7321C9.54683 11.4901 9.24628 11.3023 8.91745 11.1799C8.58862 11.0575 8.23836 11.0032 7.88791 11.0202H7.87569Z" fill="#09355E"/>
<path d="M14.6834 11.02C14.2313 11.021 13.7871 11.1389 13.394 11.3622C13.9475 9.93038 14.8636 8.66689 16.0523 7.69557C16.1267 7.64194 16.1894 7.57365 16.2364 7.4949C16.2834 7.41615 16.3138 7.32861 16.3258 7.23767C16.3377 7.14673 16.3309 7.05431 16.3058 6.96609C16.2806 6.87788 16.2377 6.79575 16.1797 6.72474C16.1216 6.65373 16.0496 6.59536 15.9682 6.55321C15.8867 6.51106 15.7975 6.48603 15.706 6.47965C15.6145 6.47328 15.5226 6.48569 15.4361 6.51614C15.3496 6.54658 15.2702 6.59441 15.2029 6.65668C12.7584 8.64279 11.6707 11.3928 11.6707 13.0978C11.6735 13.6938 11.848 14.2764 12.1731 14.776C12.4982 15.2756 12.9602 15.671 13.504 15.915C13.8714 16.0937 14.2749 16.1857 14.6834 16.1839C15.0339 16.2009 15.3841 16.1466 15.713 16.0242C16.0418 15.9019 16.3423 15.714 16.5964 15.472C16.8504 15.23 17.0527 14.9389 17.1909 14.6164C17.3291 14.2939 17.4003 13.9467 17.4003 13.5958C17.4003 13.245 17.3291 12.8978 17.1909 12.5753C17.0527 12.2528 16.8504 11.9617 16.5964 11.7197C16.3423 11.4777 16.0418 11.2898 15.713 11.1675C15.3841 11.0451 15.0339 10.9908 14.6834 11.0078V11.02Z" fill="#09355E"/>
</svg>
